<svg xmlns="http://www.w3.org/2000/svg" id="uuid-2594e0fd-8f29-4cfe-8a0c-f07e838e4c1a" width="557" height="342" data-name="Layer 1" viewBox="0 0 557 342"><defs><style>.uuid-4a0ae490-667f-4d2f-a258-af45e0932f93{fill:#f9f9f9}</style></defs><path d="m438 207-3-6-2-4-4-9-2-3-3-4-1-2h2l6 1 11 2 2 1h5l1-1 1-5 2-1 2 1v2l1-2h32l4 1q4-2 7-2l2-1 5-1 10-4 11-4 2-1 3-1v-13l1-6 2-14v-9l3-14 1-5v-1l2-7q0-2 3-2h1l2 2-1 6-1 3-3 12-1 4v15l-1 3v7q-2 5-1 10l-1 1v5l-7 8-4 3-5 2-5 2-22 5h-2l-11 2h-19l-8 1h-3q-2 3-6 1h-1q-2-1-2 1l1 5-1 1q3 1 4 6h1l2 4 5 9 2 6 3 15 1 9v5l2 6 2 8 1 3 4 7q2 4 1 8l-1 1q0 7-3 13l-3 6-9 2-7 1-11 2-5 2-4 1-4 2-4 5-1 1-5 3-5 3-2 6-2 4-2 2-6 5q-1 1-4-1l-3-3-2-3-4-3-3-3-4-5-3-5-3-8-1-2v-5l-2-2q-3-5-2-8l-2-9-1-3-1-8-1-2-1-6v-2q3-5-1-8-3-4-3-7l-3-6-1-4-2-8-2-6-2-3-4-7-1-4-3-4-2-3-6-8-5-4-3-4-1-1q-2-4-4-5l-3-1-2-1q-2-2-5-3h-5l-6 3-8 3-5 1h-3l-2 1-12-2h-2l-5-1h-2q-5-2-8-2l-5-1-5-2-5 1h-2q-5-1-8-3l-7-2h-6l-5 6-1 2-4 6-2 6-3 11-1 8-3 7-7 10-7 10-3 4-2 4-5 8-4 6-2 8v4l-3 5-1 4-3 5v3l2 6-1 5v1l-1 5 1 4 1 3 1 7 1 9v2q1 5-1 9l-4 2q-4-1-7-3l-7-4-5-4-1-1-5-3q-5-3-7-7v-1l2-1q-1-2-3 1l-2-1-5-3-5-4-5-6-3-2-4-1-1-1-5-2-5-3-6-5h-2l-5-2-8-4-4-1-4-3-5-2v-4l3-8 4-7 4-8 1-2 3-7 2-3 3-6 2-4 2-4 4-10 3-9 4-12 4-9 3-7v-1l1-4 1-1 2-5 6-3 10-3 8-3 5-2 7-4 4-2 2-1 8-4 6-2 7-2 7-2h1l8-3 7-1 10-2h7l2-1h-9l-7 2-8 1-3 1-6 1h-1l-7 2h-1l-13 5-6 2-5 2-5 2-7 3-8 4-8 3-6 1-6 2-9 2-4 1-14 2h-3l-19 1-10-2-9-2q-5 0-5-4l-2-8v-8l1-4 1-3v-5l2-10v-12l-1-5-1-9q-3-2-4-7l-1-2-5-11-8-16-2-7-1-5-1-5 1-5 1-4v-1l4-7 4-4 2-3q3-4 7-5l4-2 7-2 11-3 3-1 3 1h7l4 1 8 1 4 1 4 1 7 2 3 1 6 1 15 3h1l4 1 11 4h3l9 3 9 2 7 2 13 4 4 1 6 2 4 1 13 2 10 2 5 1q4 0 7-3v-1l-2-2q0-3 2-3l6-3 12-3h1l6 1 7 2 1 1-1 2-6 4-1 1 8-5 7-4 7-2 2-1h15l3 1 11 4 5 1 6 4 2 1 7 6 5 2 3 2v2l2-1 1 1h3l3-1 15-2 12-2 1-1 10-1h3l15-2 7-1 5-1 5-2 9-2 10-3h1l9-3 5-1 6-2 7-1 9-2 13-2 9-2h7l6-1q2 2-1 2l-4 1-10 2-7 2h-5l-1 1-3 1-3 1h-4l-5 1h-4l-9 2-11 4h-4q-2 2-5 3l-4 1h-4l-5 2-9 3h-3l-3 1-14 3-9 1-5 1-8 1h-1l2 1 8-1h3l2-1 4 1q0-2 3-1l1 2 1-2 3-1 1 1 1-2h4l7-2 1 2-1 4v2l1 3-2 1-7-1q0-4-1-6l-1 2 1 3-2 1h-7l-3-1-4-1h-9l-2-1-13-1-8 1h-10l1 1h23l12 2h3l7 1h5l11 2 9 1 8 1h13l5 1h2l4 1h3l2 1h5l10 1h6l2 1h3l4 1h4l4 1h9l6-1 9-1 3-1 10-3 10-2 4-2 6-5q3-1 4-3l9-7 2-2-1-6-3-3q-2-3-6-7l-6 1 4 1 5 4 2 3 1 5-1 1-5 6-1 1-3 2-1-1V30l-1-1v21l-5 3-1 1q-2 0-2-2l-1-12V25h-1v28l-1 3h-2l-1-3V26l-1-1v31q-2 2-3 1v-1l-1-13V26l-1-1v31l-2 1-1-2 1-3q-2-2-1-4l-1-6V28l-1-3v1l-1 13v5q1 2-1 4v4l-1-1v-3h1q-2-2-1-4v-2l-1-5V27l-1-3v2l-1 12v9h-3V22l2-2 8 1h3l9 2 10 2h2l-2-1-4-1-6-1-13-3q-3 1-4-1l-1-1 2-1h6l3 1 2 1h5l8 1h10l4 1 5 5 3 4q5 5 6 11l2 10v18l-2 13v5l-1 1h-4q-2-2-2-4l2-7 1-6V59q1-3-2-6v-8h-1l-2 3-4 4-8 5-7 3-9 4-15 4-12 3h-22l-16-1-5-1-3-1h-1l-11-2h-5l-7-1-11-1-9-1-13-2h-1l-10-2h-6l-2-1h-16l-5-1h-16l3 1-5 1 1 1h4l8 1h9l5 1v1l-22 2h1l11 1h15l4 1 4 1h-15q-4 0-8 1h-8l1 1h13l11 1 12 2 13 2 5 1 1 1h-3l-7-1-9-1-11-1h-2l-3-1h-1l-8 1h-3l1 1h9l3 1 11 1 5 1 3 1 5 1h3l6 1-1 1h-3l-5-1h-2l-11-1-7-1h-11v1h1l14 1v1l5 1 6 1 4 1h5l4 1-1 2h-1l-6-1h-15l-5-1h-2l10 2 10 2 10 1-2 2-10-1h-7l-9-1h-7l3 1h5l15 3 9 1 3 1-1 1h-2l-11-1-12-2h-15q4 2 7 2l14 2 12 1 14 2h1l7 2 2 1-1 1-2-1-9-1-10-2-13-2h-6l-6-1h-11l-1 1-7-1v1h1l16 2 13 2h1q-1 2-6 0h-25l-6-1-2 1 1 1 11 1h2l3 1 7 1 2 1h-26l2 1 12 1 6 1h3l4 1-1 1-2 1h-12l-7-1h-3v1h1l15 2 11 1h2q1 3-1 3h-15l7 1h3l11 2h7l6 1 8 2 2 2-1 1h-3l-10-2-10-1h-5l-5-1h-8l11 1 12 2 9 1 7 2q1 0 3 2 4-2 6 1l-2 2q-2 0-5-2h-4l-9-2-2-1-12-2h-4l-2-1-8-1-6 1 2 1 7 1 5 1 22 5 5 2 4 1 6 2h-3l-4-1h-2q-5-3-11-3l-6-1-7-2h-2l-9-1h-4l1 1 14 2 9 2h1l7 2 4 1 11 4 6 1 9 3 11 3 6 1 4 1 5 1 12 3h2l2 2-1 1q-5 0-11-2l-2-1h-9l-3-2-1-1q-1 2-4 1l1-2h-2l-1 1q-6 0-11-4l-1 1-3-2-6-1h-4l-2-1-2-1q-3 1-5-2l-6-1 3 2 8 3 4 1 17 5 18 5h1l2 1 8 1 9 1h2l-1 2-7-1-10-1-7-2-16-4-10-2-8-2-9-3-8-1-7-2-8-1-2-1h-4l7 2 8 2 9 3 9 2 12 4 10 2 7 3h1v1l-4-1-15-4-11-3-16-3-7-2-8-2-5-1h-2l-1-1-16-1 13 3 12 3 12 2 7 3 10 3 9 2 14 4 11 3 10 1 10 2h8l3 1 1 2v6h-2l-6-1-7-2h-4q-6-4-13-4l-9-3-11-3-12-3-8-2-11-3-9-2h-2l10 3q5 1 8 3h1l5 2 11 2 2 1 2 1 8 2 9 2 3 1 6 1 2 1 3 6 2 3 2 4 1 1 1 2 1 1 4 9zv4l1 3 2 7 1 3h1v-3l1 4h-2l1 3 1 6 1 3 1 2 1 4v-5l-2-12q1-4-2-8v-1l-4-9h-1zm-284-63-3 3-3 3-7 9-2 2 1 1-2 3q-2-1-2-3l2-2 1-3 1-2v-1l-7 8-2-1v-2l4-5 3-5 1-2-3 3-2 3-7 10h-2l-3-1 1 2 3 2-3 2-4-2v2l-3 6 2-2 3 2-1 3-3-1-1-1 1 1 2 2q-1 4-3 6v2-1l2-1 3 2-2 3h-1v2l-1 3-1 2-2 4-1 4-2 4-2 2-3 7-1 1-5 7-3 7-3 3-6 11-2 5-2 2q-3-1 0-4l2-5v-1l5-10 6-10 2-3h-1l-1 1-3 6-5 7-6 12-2 2q1 3-2 4l-2-2q-2 1-4-1l1-3-2 3q2 3 4 4h3l-1 3-3-1-4-1v-3l-1 3-3 1 2 2-1 2h-3q-1-2 1-5l-1-1-1 3-3 6-1 2-1 6h1l2-2 1-4q-1-2 2-5l2 2q0 3-3 4 1 4-1 8l-2 1 3 2 3 1 6 1 8 3 4 2 2 1 4 3 5 3 7 4 5 3 9 6q7 2 12 7h1l3 1 3 3v-2q-2-2 1-3v-1q1-5 4-8v-1l2-6 1-7 2-9h1v22l2 8v3l2 5 1 1v-2l-2-11-1-11 1-4v-7l3-9 4-10 3-7 3-8 2-2 4-7 5-7 8-11 6-9 2-5v-4l2-5 2-9 4-11 3-4 5-7 5-5 2-2-5 2-3 2-3 4-4 4-1 1q-3 4-4 9v1l-1 3-1 6-1 9-1 4v2l-1-2v3l-2 4-5 7-1 2-4 5-4 5-4 5-4 4 5-8 6-8 4-6 2-3 3-9-3 6-9 12-3 4-2 2-5 7-4 5-2 4-6 13-1 2-3 10-2 8-1 3-1 2 1 1-1 7-4 11-1 1q0 3-2 2h-1v-3l3-7q2-3 1-6l2-3v-2l2-7 2-7 3-10 4-9 5-10 6-10 5-6 4-7h1l1-2 4-7q1-1 1-3l1-3-1 3-1 2-3 5-2 2-7 10h-1v-1l1-2 5-9 2-5 3-7 4-6v-1h2l-1-1q0-3 3-4v-2l1-2-3 3-3-2 1-2 3-1-3-1-4-3q-2 1-2-1l1-2 2 2 2-1 1-2q2-2 3-5h1q4-3 6-8l1-1v-1 1q-4 2-6 6l-2 2q-1 3-4 3 1 3-2 4l-1-2q2-2 3-5l2-2 2-3q2-1 1-3v-1l-8 10-2-1q0-4 3-5v-1l1-2 2-1 4-5 4-5 2-4-6 7-1 2-8 9h-1q0 2-2 3l-1 1-1-1v-2l6-9 5-6 2-1 1-2 1-2-1 2-2 1-7 8-4 5-4 4-2-2 3-4q1-1 1-4h1-1l-6 9-2 3h-2v-3l1-2 1-2 2-4-6 7-1 2-2-1v-2l8-11 2-3-2 1-6 7-4 6-3 4q-2 0-2-3l2-2 5-8 7-9v1h-1l-5 6-2 3-4 4-2 3q-1 2-3 2l-1-1 1-2 4-6 6-9zm48-7-3 3zm198 46-1-1zM207 72h-1zm-32 77q1 0 0 0l-2 1zm-28 171h1zm45-176v1zm-36-2-1 1zm-55 41-1 2zv-2zm273 82 1 2 2 12 1 5 2 5v4q3 3 2 5l-1 2-2 1v-2h-1v-4l-3-7-1-4v-12l-1-5-2-8v-1h1l-1-5h-1v-1l-6-13-4-13-2-5-3-5-3-7-2-4-5-9-3-5-7-7-3-4-4-4-10-7-1-1 1 2 10 9 3 4 10 13 7 13 2 4 4 7 3 7v2l4 10 1 4 4 10 3 8 1 11 1 8 1 5 1 7v1l2 7q2 3 1 6l2 3 4 7 2 4 2 1 2 1-2 2 2-1 3 3q-1 1 0 3h4v-2l-1-2 2-2 2-2q4-1 7-3l7-7 4-3 4-3 4-4 6-4 2-2-1-2q-2-1-2-3l2-1q2 3 2 5h4l3-1 5-1h2l4-1 3-1h4q1-2 4-1l1-3-1-3-3-12-3-6-4-8-3-8-1-1v-1 1l1 4 2 6 5 12 3 10q1 2-2 3l-1-2-1-4-2-6-2-5-3-7-4-11-2-10-2-7-3-12-1-4-2-4-1-1-1 1 2 4 2 7q2 4 1 10 2 2 3 5l2 9 1 4 3 8 3 6 3 8 1 3 1 6-1 3-2-3v-3l-2-3-2-5-3-8q-2-3-3-8l-2-4v3l1 3 2 5 3 9 3 6v3l-2 1-1-2-1-2-4-8-1-2v-3l-2-5-3-11-3-14-2-5-1-3v-1l-4-13-2-4-1-2-2-5-3-4v-1l2-1 2 2 1 3 3 7 3 5 1 3 2 8h1v2l2 1-2 1 4 14 2 8 1 1 1-1-1-2-2-10v-1l-1-5-2-6-1-2h-1l1-1-2-6-2-6v-1l-4-9-5-9-4-4-1 1h-3l-1 1-4 3h-2q-1 2-3 1l-2-2-5-7v2q-4 2-6-2l-3-3-4-4-1-1-1-3-1 1 2 2 1 1 1 2 5 6 1 2h-4l-2-3-4-4-5-5v-1l-3-3-3-3-1-1v2l4 3 2 3v3h-2l-4-5-2-1q-2-4-6-6h-1l8 9 1 2 1 2h-2l-2-1q1-1-1-2l-7-7-7-7-8-6-3-1 11 10 1 1 5 6h1q2 4 5 6l5 7v1l-1 1-4-5q-4-6-9-9l-5-4-7-6-2-1 6 5 9 9 3 4 9 10 1 2v2l-2-1-2-3-9-9-6-5-2-2v-1 1l2 2 7 9 8 8 2 3 2 2-1 3-2-2-2-2-5-6q-4-5-9-8l-2-1 1 1 8 8 4 5 4 5 2 3 1 2q-1 2-3 1-2-4-7-9l-8-8 6 8 7 9v2h-2q-2-3-6-5l2 2 2 4 2 2q0 4 2 4l1 2 6 8 4 8 1 3 2 7 2 9 2 7 1 9 3 11 2 5 1 4-3 1v-2l-2-8-2-4-1-5-1-3zM200 151l-1 1zm-19 29 2-2 1-1 6-7 1-2 1-1h-1l-6 8-2 3-1 1zm2-39-2 1-4 4-1 2 1-1 3-3zm11 31-5 6-1 2v1-1h1l4-5zl2-3q-2 1-2 3m173 67 1 5 1 3h1v-1l-1-2zv-3l-4-7zm-227 78-1-2q2-4 3-8l-5 8zM84 212l2-2 4-6 3-4 4-8 1-3v-1 1l-3 5-4 5-2 3-2 3-2 3zm361-2v-1zq-1 4 1 8v1l1 5 2 6 2 15 2 3 2 5 1 3 3 7 2 7 2 7 2 4v-1l-1-6v-2l-3-9-3-6-4-9-1-2-1-7-3-22zm-317-85 3-1 8-3 6-2 12-3 16-4 9-2 9-1 7-1h-11l-6 1-7 1-6 1-10 2h-3l-25 8-4 2-5 2-10 3-7 2-10 3-19 2H56q6 2 10 1h3l8 1 21-3 9-3 8-3 6-2 6-2zM42 89l-1-1zl1 1 5 1 4 1h9l6 1h13l10-1 13-1 6-1 13-3h3l-1 1-7 2-18 3-5 1-4 1-12 1H57l3 1h7l10 1 5-1h11l11-2 12-3 12-3 17-4 8-2h3l14-2h1l5-1 12-1 4-1 6 1 7-1h3v-1h-26l-8 1-5 1-12 1-6 2-11 2h-8l-3 2v-1h-3l-3 1-1-1v-1l-3 1-6 1-10 2-8 1-11 1-3 1H62l-6-1h-5l-7-1zm133 27 5 1 2-1 7-1 6-1h5l3-1h3l-1-1h-13l-6 1h-3l-6 1-9 1-4 2-7 1h-2l-6 2-7 2-15 5-7 3q-9 5-17 6l-4 1v-2q-3 0-3 3l-1-2-1 1 1 1h-2v-1l-3 1-9 1-4 1H58v1h5l1 1h11l8-1h10l-2 1-13 2-4 1h-3l-2 1H52l-3 1 6 1h8l9-1h8l6-1 2-1 4-1 3-1v1l-2 2-7 1-3 1-11 1-14 1H41l-1 1 5 1 13 1h17l-13 2H33l2 1 13 2 8 1h4l9-1 6-1 5-1 11-2 14-3 10-4 9-3 14-6 10-3 7-2 9-3 9-2 9-2 7-1 10-1 8-1 4-1h-19l-7 1h-5l-2-1 1-1 8-1 8-1h1l10-1 4-1h-16l-13 1-6 1h-4l-11 3-11 3-3 1-8 3-6 2-4 2-2 1-6 2-7 3-6 2-5 2-5 1-1-1 2-1h2l7-3 1-1 8-2 8-3 3-2 21-7 5-2 7-1 14-4zM22 19h-2l-3 3-2 2-5 7-1 5 2 4 4 2 4 4 1 1 6 2 8 4 7 3 3 1 6 1 11 1h27l2 1v-1l2-1 6-1 2-1 11-2 7-1 6-1h3l3-2 10-1 10-1 7-1 8-1h13l7-1 16 1h5l7 1 2-1-1-1-6-1-9-2h-16l-1-1-10-1h-1q1 2 3 1v1h-2l-2 2q-2 1-4-1l-5 1h-6v1l-3-1 1-6 2-1 1 1 1 2v1l1-3 4 1 1 4-1-3q3-2 5 1l2-2-7-2-7-2h-2l-3-2-9-2-4-1-7-2-8-2-7-2-9-2-3-2h-3l-8-2-7-3h-2l-2-3-4 2-1-2-3 1-4-1h-2l-2-1v1l1 2 1 14v11l-1 2q2 2 1 3h-3V34l-2-4v10l-1 1q2 2 1 3h-3v-2l1-1-1-1v-2l-2-1q2-3 0-6l-1 4 1 5v6l1 2q-3 3-4 0v-8l-1-1-1-7-1-8v9l1 6v9l1 2-1 5-2-2v-2l-1-5-2-16-1-7v13l1 9v8l-3-1v-8l-1-6-1-9v-1l-1-5-1-5v3l1 6v10l1 7v7h-2l-1-1-2-16v-7l-2-10v-5h4l1 3v-2q0-3 2-3h-5l-5 1-2 1-8 5zm268 104q1 3-1 6v5l-2 7-3 9-3 8v4q2-2 3-5l3-10 4-10 1-7 3-14v-3l2-6v-1l1 1-1 10-2 10-2 10 1 1h-1l-6 21 1-1 2-6 2-7 3-7 1-5v-2l1-4 2-5 2-13 1-6v-5q0-3 2-4l1 2v12l-3 16-1 2-1 8v3q2-7 3-14v-2l2-5 2-3q2-5 1-10-2-2-3-5l2-4v-4l3 2 1-3 1 3 1 5-1 4v2l-1 7-2 8 1 3h-1l-3 10-1 5v1l-2 7v6l2-7 2-7 3-11 2-9 2-9 1-5 1-8h1l1 3-1 6-1 7-4 17-2 7-2 7-1 7 1 3v-1l4-12 1-3 1-5v-1l2-4 1-2v2l-1 7-3 9-1 11v3l-1 3h1v-3h1q0-5 3-10l2-5 4-9 3-8v-2l1-5 2-8 1-5v-4l-1-7-1-3-2-8-2-8 1-2h8v-1l-9-1V56l-2-2-3-3-2-2-5-4-1-1-5-2-2-1-8-4-4-2-4-1q-4-3-8-3l-1-1q-3 2-5 1h-14l-8 3-1 1-2 1-9 6-4 1-4 1-2 2-2 2-3 3q-2 1-1 4l4-3 4-2v3q-1 2-3 3l-3 2q-4 2-5 6l-1 5-1 8-1 8v1h-19l-10-1h-11l-4 1-8 1-5 1-15 3-7 1-10 3-10 3-10 2h-2l-4 1-9 1-13 1H66l1-1h19l6-1 7-1 12-2 6-2h2l5-2 7-1 5-2 23-5 11-1 13-2h5l14-1h6v-1l-10-1h-17l-13 2-12 2-10 2-12 3-10 3-5 1-9 2-16 3-15 1H65q-3 0-4 2-2 3-4 2h-8l-5-1-2-1v-2l6 1 10 1 2-1-1-1h-8l-5-1-5-1-3-9-2-3 1-1h5l11 2 14 1 25-1h4l11-2 14-2 4-1 9-2h2l-1 1 24-5h-8l-8 1-10 2-9 1-8 1-8 1-11 2h-3l-11 1H52l-6-1-12-2h-1q3 3 2 6l1 1 1 4q2 2 1 5-3 1-3-5l-2-4v-1l-4-9 1-2 4 1q3 3 7 2l9 2 11 1h30l5-1h2l11-2 3-1h5l13-3 9-1 4-1q-1-2-2-1l-2-1-5 1-12 2-9 1-12 2-6 1-11 1H67l2-1h10l9-1 16-2 10-2 7-1 5-1 12-2 2-1 3-2 4 1 24-3v-1h-14l-2 1-9 1-11 1-4 1-10 2-15 2h-1l1-1 6-1h3l11-3 13-2 4-1 11-1 12-2 12-1 3-2-3 1h-15l-9 1-10 1-10 2h-3l-1-1h2l6-1 5-1 7-2 7-1 36-2 10-1h9l3-1-5-1h-22l-7-1-17 1h-8l-4 1-8 1h-1l-7 1-8 2h-4l-5 1-2 1-11 2-5 1-9 1-3-1-2 1H64l-11-1-8-1h-2l-7-3-7-2-3-2-5-2-2-1-1 3h-2l-2-1 1 7h1q3 2 2 5v1l-4-5-1-4q-2-2 0-4-3-3-4-7l-1-5q-2 0-3 2l2 6 2 7v1l2 6 1 1q1 6 5 11l2 5 6 12 4 9 1 6 1 7v10l-1 3-1 9-1 6-1 7h2l2-10 3-2v3l1-1 2-5 2-8 1-4v-3q-1-3 1-4h1l-1 4 1 4-1 5-1 7 1 1 1-2 1-6 2-3 2 1h5l9 1 8 1h1l8-1 13-1 6-1 13-2 7-2h2l-5 2-15 5h-2l-11 2-6 1H59l-3 1h8l7 1h2l1-1h6l18-2 4-1q3-1 7-3h1l12-4 9-4 7-2 6-2 7-1 9-2 4-1 5-2 4-1q-4-1-5 1l-5 1h-5l-5 1h-1l-9 2-8 3-11 3-8 2-5 1-1-1-9 2-33 3H49l-4-1v-3h6l15 1h23l10-2 10-2 6-1-1 1h2l13-4 6-2 17-4 6-1h4l4-1h4q5-2 11-2l13-1h6l-1-1h-14l-9 1h-7l-10 1-7 1-9 2-5 2-11 2-6 2-4 1-10 2h-2l-1 1-14 2-10 1H64l-14-1-5-1-2-1 4-1 2 1 6 1h23l10-1h3l14-2 5-2h2l4-1q7-2 13-3l4-1 2-1 7-2 10-2 7-1q7 1 14-2h4l8-1 11-1h9l-5-1-1-1-6 1h-15l-12 1-8 1-7 1-5 1-3 1-8 2-13 3-1 1h-3l-6 2-11 2-14 2h-5l-6 1-31-2v-1h2l3 1h14l8 1 9-1 7-1 10-1 6-1 4-1 8-2h3l8-3 5-1 9-2 6-1h2l4-1 5-1 11-1 16-2 16-2h12-1l-6-1h-20l-9 1h-13l-14 3-8 1-5 1-3 1 2-2 9-2 12-2 12-2h6l11-2h17l12-1h2l1 4v6l1 3v7l2 4v1l3 12v1l1 5-1 10-1 10v3l-2 4v4l2-1 2 1 2-5 1-6 2-1v11-1l2-6 2-5v-1l1-1v1l-1 5v11h1l2-8q2-2 1-5l2-2v2l-1 2v8l1 1 2-3 1-2v-4l2-6v2l1 5 1-1 1-2 2-12 1-12v-5l-2 2-1 6-1 6-1 6-1-1 1-8 1-10 1-5v-3l-1-5v-2l2-1 1 2 1 8v1l1-3v-7l-1-1v-4l-1-8 1-1v3l1 2 1 2 1 6 1 6 1-1v-9l2 1v9l1 3-1 7v8l-1 10 1 2v1h-1l-1 8-1 8 1-2 1-4 1-4 2-5 3-8v-1l2-8v-1l1-11v-7l1-2 1 2v10l-1 10-1 6-1 5-1 1-1 4-1 4-2 5-2 3 2 3q2-1 1-3l1-3 2-3 4-14 2-7 1-9v-3l1-4v1l1 8-1 4-1 7v1l-3 9v1l-3 9-1 5-1 3-1 4q2 1 1 4l2-4 2-4 2-6 1-3 2-5h1l1 2-2 7-3 9q3-2 2-3l6-14 2-6 2-5 1-1v3l-2 5v2l-1 2-2 5v3h1v1h-1l-1 1 1 1h-1l-1 5 1-2 4-7 3-9 1-1 3-12v-4q0-4 3-6m-40 37 1-1 2-7 1-7v-5l1-2v-10l-1-7v8q-3 5-2 9l-1 10-2 8zM229 35q-3-3-7-1l-6 4-1 4 1-1 3-2 4-2-3 5 1-1 2-1 4-1 3-1-2-2zm228 209v-4l-1-6v-6l-2-10-3-7-4-9h-1l2 4 3 7 4 21zm-23-34-3-6-3-8-3-4-2-4-4-6h-2l1 1 5 9 6 11 2 4 1 3zM62 13l1-2-4-1H43l2 1q3-2 7 0l-1 2q3-1 5-1v2q1-4 5-2l1 9zm113 61q15-3 29-2l-2-1h-12l-10 1-12 1h5zm347-49-1 3-1 8 1 4v10l1-5zM80 233l2-3 2-4q3-4 5-9l3-6 1-3-4 6-2 3-3 5-1 4zm85-164-18 1-2 2 9-1zm28 82-1 1-8 7v4zm-78 37-4 8q-2 4-3 8l1-1 4-10 3-4zm-37 62 3-7v-2l-3 3v2l-2 2 2 1zm365-44-2-5-4-5q2 6 6 11m-198-46 2-3-1-3-2 2q-1 2 1 4m123-17-11-2-1 1 6 1zM142 319q4-4 3-8l-3 6zm191-199h12-1l-7-1q-1-1-4 1m55-66 1-2q-2-2-2-4-1 4 1 6m-80 116 2-3-4 2zm-204 6-1 2-1 2v2q3-2 2-5m4 29-3 6zm-35 31-1 4v1zM308 97l1-2-1-2zm-103 32 5-1zm327-98h-1v5zM145 301q-2 1-2 4zm27-238v2l4-2zM91 225l1-3q-2 1-1 3m97-168h-4zm-26 18h-2zm191 83-2-1v1zM134 80h-2l-2 1zm-15 49 3-1q-2-1-3 1m51 26 2-2zm26-14-2 2zm1 7q-2 0-3 2zm151 8 2 1zm-163-11 2-2zm148-26h-2zM77 240l-1 2zM377 49v2zm70 195 1 1zm-379 6v2zm8-7v1zM46 20v2h1zm20 232v2zM194 67h-1v1zm158 73h2zm-4-90h-1zm46 129v-1zM349 49h1zm-186 99" class="uuid-4a0ae490-667f-4d2f-a258-af45e0932f93"/><path d="m527 84-8 3-8 3-10 2-4 1-6 1-4-1 2-1 9-1 3-1 9-2 6-3 6-2q3 0 6-4l-2-1-10 5-12 3q-7 2-14 2h-1l1-1 10-2 6-1 2-1 5-2 6-2 7-4 7-5 1 2-1 4-1 4-1 7v2l-4 11-3 8-2 5-1 1q-1-2 2-5-1-3 1-7l2-10v-2l-8 3-12 3h-1q-5 2-11 2l-6 1-1-1 3-1 6-1 9-2 7-2 3-1 7-4 5-2zm-40 80 2-2h4l6-1h2l7-2 3-1h-2l-8 1h-18l1-2h10l8-1 9-2 2-2h-2l-7 1-6 1-8 1h-5l-2-1 1-1 9-1 6-1 11-2 4-1h2l1-2h2l1 2v3h4l1 2-3 2-9 4-1 1q-4 1-8 3l-2 1z" class="uuid-4a0ae490-667f-4d2f-a258-af45e0932f93"/><path d="m533 68-2 1-5 2-11 5-4 2-8 2h-3l2-2 6-1 11-5q6-1 10-6l5-3 1 1 2-1 1 2-2 15-1 4-1 1q-3-2-1-4l2-10v-1zh2v-3zm-26 96 2-2 13-5 5-1-3 3-8 3q-3 2-7 3l-8 3-9 2-8-1-9-1-2-1h12q9 1 17-2zm-16-56v-2q1-2 4-1h1l9-3 10-2v2l-2 5-1 2-3 1-5 1-6 1h-2l-1-1 2-2h3l5-1 4-1 2-2h-3l-8 2-7 1z" class="uuid-4a0ae490-667f-4d2f-a258-af45e0932f93"/><path d="M522 91q1 4-2 6v3l-1 3q0 5-3 5v-5l1-5-2 1h-1l-8 1-9 2h-4l-4 1-3-1 2-1 8-1 7-2 8-2q4-1 7-3zm-72-40h-2v-2l-1-6h-1l-1 3 1 3-1 2q-3 0-3-2l1-5v-8l-1-3q0-2 2-3l2 1 2-2 2-1zm77 111-3 2-11 5-3 1-11 3-8 2-4-1-1-1 4-1q9 0 17-4l3-1 9-4 7-2zM477 50l2-1-1-1v-5l-1-7v-5l1-8 2-1 1 3-1 9v12l1 4-2 3zm13-7 1 4h-2q3 4 0 5-3-2 0-4-3-2-2-3V23l1-2h2l1 6-1 3zm-5 5v4h-2v-3l1-1-1-1V30l-1-6 1-2 2-1 1 1-1 8zm11 99h2l8-2 7-2 2-1 1 1 2-3v-4h1v4l1 1v3l-4 1q-2 2-6 2zM458 26l3 1v15l-1 4-2 1-1-5V28zm17-3v23l-1 2-1-3v-9l-1-9v-4zm-13 3 1-1 2 2v18l-1 3-1-1-1-2zm5-1 2-1 1 2v19l-1 3-1-2-1-1z" class="uuid-4a0ae490-667f-4d2f-a258-af45e0932f93"/><path d="M491 143q2-2 5-1l4-1 12-3h3l1 2-2 1-9 2-8 1h-4q-2 1-2-1m-36-97q-1 2-3-1V30q0-4 3-2zm-15 4h-2l-1-3 1-15h2l1 4-1 2zm58 82-1 2h-4v-3zl12-3q3 2 1 4l-9 1zm-62-83h-3l-1-2V36l1-3h2v1zm-5-1-2 1-1-1v-1l-1-10 1-1q0-3 2-1zm64 69q0-3 2-3l8-1h2l2-2h2q1 4-2 4l-6 1-5 1zm-48-59h4l1 1h6l3 1 3-1 2 1v1l-3 1-9-1-3-1h-7l-2-2zm-22-10h-2l-1-11 1-1h3v10zm-5 0h-2v-3l-1-4 1-4h2l1 2v6zm-16 4-2-2v-8q1-2 4-1v10zm-25 71q-2 1-5-1l1-1 1-1 4 1 7 1 2 1v2h-2l-5-1zm33-77v-7l4-1v10q-3 0-4-2m-11 6h-3l-1-8 4-2zm7-4-1-1 1-3v-4l3-1v9zm-12-4v7l-2 1-1-1-1-3v-3q1-2 4-1m102 94 6-2 4-1 3 1-2 2-7 1zm12-13-2 1-4 1-3 1-1-1 1-2h3l4-1zm-15 23-2 2h-8l-1-1 1-1h4zm24-22 1 2v6l-2-1zm-129-7h-6q-2 1-3-2h1zm18-64 2-1 2 1q3-1 5 1h-8zm87 55-1 2-4 1 1-3zm38-24v3q0 3-3 5 0-5 3-8m-28-12-1 1-11 2 1-1 9-3zm-110 61q3-2 5 1v1l-1 1q-2 1-4-2zm98-18h-4v-2q2-2 5 1zm-124 5v-2h4v2zm13-10h3l4 2-1 1-6-2zm110 27v-1q2-2 3-1 1-1 2 1-1 2-5 1m7-59q-4 4-9 1h1l7-1zm-57-26 1-2 3 1v2q-1 1-4-1m-75 68-4-1v-2q2-2 5 1zm42-70-1-3h2l1 2zm79 59v2l-2 1-2-2 2-2zm-80 22h1q2 0 3 2l-3 1z" class="uuid-4a0ae490-667f-4d2f-a258-af45e0932f93"/><path d="M455 51h-2l-1-2 1-2 2 1zm-68 56q-2 1-5-1h4l4 1 2 1zm15 25h4v1q-1 3-2 1-3 1-2-2m57-79q3 1 2 3-3 2-4-1v-1zm-8 2h-4q0-3 2-2h2zm12-6h1l1 3h-2zm-69 80-1 2-3-1v-1zm90-11v-3h2q1 4-2 3m4-12 1 2q-3 2-5-1zm-29-54-1-1 1-2 2-1v2q1 1-1 2m-47-2h3v2q-3 1-3-2m-13 3 2 2q-2 3-4 0v-1zm102 67q3-1 6-1v1h-2l-5 1zm-36-64-2 1-2-1q0-3 2-2zm-14-2 1-1 2 1v2q-2 1-3-2m-89 61 2-1h3q0 3-2 2zm131 11h4l-1 2h-3zm-78-31q0 3-2 4v-4zm2-43v-2h4q-1 3-4 2m75-4 2 2q1 2-2 2l-1-2zm-96 6-2 2-2-2 1-1zm-35 61q-4 1-5-1h5zm128-59-1 1q-2-2-2-3h1l1-1zm23 77h2q0 3-3 3zm-99 3q0-3 4-1l-1 2zm27-83-2 2-2-3 2-1zm-42 78v1h-2l-1-2q1-2 3 0m0-32q-2 3-5 0 3-3 5 0m86-41q-2-1-2-3h2zm-84 81q2-2 4 0zm70-82-2 1q-2-1-1-2 2-2 3 1m52 93q-2-1-1-3l1-1 1 1zM393 97q-3 3-5 0zm88 66q2-2 5 1h-1q-3 1-4-1m-7-111h-1v-2l2-1q1 1-1 3m-78 72-2 2-2-1v-1zm-21-8h4l-1 2q-2 1-4-2m126-62-2 2v-2zm14 77q-3-1-1-3h2zm-89-78q-2-1-2-3h2l1 2zm20 116h-7zm-42-78-1-2 2-1 1 1q1 3-2 2m84-32h3v2q-2 2-3-2m-17-10v3h-2q0-3 2-3m8 104h3v1q-2 2-3-1m-105-36q-3 0-4-2 3-1 4 2m2-6-3 1-2-1zm108-52h2l1 2h-2zm-80-3v-2q4 0 3 2zm66 107h5l-1 1zm-89-51q-2 2-4-1zm24-18-1 2-1-1v-2zm76-40v3l-2-1zm-83 30q2-3 4 0l-1 1zm31-33q1-2 3 1l-2 1zm-24 34 1-1h2l-1 2q-1 1-2-1m-7 40 3 1-1 1q-2 1-2-2m98-71v2q-2 1-2-1t2-1m28 85 1 1v3zm-43 24q-3 3-5 0zm-57-26h-4l2-1zm10-86h2l1 1q-2 3-3 1zm-17 43h-2q-1-4 2-3zm106-28q1-2 5-2-3 3-5 2m-105 64 1 2-1 1-2-2zm72-2q1-3 3-1l-1 2zm-17-73h3l-1 2zm-63 35q2-1 2 1l-1 1q-3 0-1-2" class="uuid-4a0ae490-667f-4d2f-a258-af45e0932f93"/><path d="M396 93h2v1q-2 2-2-1m27-36q1-3 3 0zm-31 25h4q-2 3-4 0m90 67q-2 1-3-1h2zm-118-39h4zm46-16v2h-2v-1zm31-37v2q-3 1-3-2zm-30 83-4-1q2-1 4 1m-53-31 3-1 1 1v1zm63-12-1 2-1-1zm-18 31h3l-1 1zm-2-29h2l-1 2-1-1zm25 36 1-2 2 2zm-36-43q1-2 2 1l-1 1zm97 52-1-1h3zm-59-87h2v2zm-7-1-2 1v-2zm0 76 2 1-1 1zm56 27q0-2 3-1-1 3-3 1m-78-71-1 2-1-2zm91 44q1 1-1 1l-1-1zm-9-35h3l-2 1zm-72 32h3v2zm64-69h2l-1 2-1-1zm16 79h-1l-1-2zm-67-47q1 2-1 2h-1zm-29-5-1 2-1-1zm105-27 1-1 1 1zm-91 42v-2h1v1zm109 11-1 1-1-1zm-108-7h-2v-1zm72-45h-2l2-2zm-106 44q-3 2-3-1zm107-3 3-1q-1 2-3 1m-89 17 2 1q-1 1-2-1m37 19h-3zm40-77h-1zm-74 16-2 1v-1zm111-4 2-1q0 2-2 1m13 49v2zm20-41v2zm-42 40h1v1zm-13-1v1zm-74-33v-1h1zm72 20h-1zm-48-50h1zm48 87-1-1 1-1zm-104-38h1zm67 79-1 1zM269 41l-1 2v7l1 1-2 2-2-1v-3q-3-2-6-2l-1 2-3 1-4-1-4 1-3 1q-1 1-3-1l-2 2-2-1v-1l3-1h1l2-1h2l4-2h-3q2-3 5-2l4-2h1l6-2 5-1zm14-1v-2q6 4 11 6l2 2h-2l-3-2-1 1h-5l1 1 7 1 1 1 3 2 1 2h-1l-5-2-2-1-2 1h-4q-3 0-2-2l-1-5v-2l4 2h2zM58 78l-1 1h-5l-10-2-6-1-5-1-3-1-2-1q-3 0-3-4l3 1 5 2h2q3 2 8 3l2 1h8l4 1zm204 21 1 6v15l-1 8v2l-1 5-1 3-1 1v-14l2-8V99zM17 56h3l6 4 6 3 8 3 3 1 9 1h2l-2 1-12-2-7-2-10-4-3-1q-3-1-3-4m7 19 1 1 5 9 1 4 2 7 1 3v2l-1-1-7-16-1-5-1-2zm19-3h-5l-11-4-5-2-2-3h3l9 5 5 2h3zm1 32 10 2 10 1 10 1h-2l-28-1zm273-11-3-2-1-1-1-9 2 2 1 2zm-21-39q2 0 5-1l3 4h-1l-2-1h-4q-2 0-1-2m-39 47q-2 0-2-3v-6q3 1 2 4 2 2 0 5m13-61q2-2 2 1v6l-1 2-1-2zM18 65l4 5-1 2q-3-2-4-6zm56 9h-5l-5 1-1 1-1-1 1-1zm43 28-2 1-12 2 1-1 4-1 8-1zm114 45q-1-5 1-9l1 1-1 4zM56 73c-1 1-8 0-11-1h5l4 1zm234 50-1-3 2-4q1 3-1 7m-254 3-2 9q0-5 2-9m4-25q-3 0-3-3h2z" class="uuid-4a0ae490-667f-4d2f-a258-af45e0932f93"/><path d="M239 47q0 2-2 1l-2 1h-2q3-2 6-2m21 4v-3q2 0 3 2l-1 2zm12 61v-2l-1-3 1-2zM123 63l6-1-4 1zm0 37 6-2h1q-2 2-4 2zm-47 7h6zm221-49h3l-2 2zm-15 78 1-5v3zM36 119v-4zm45-45h-4zm160 68v-3zm4-26 1 1-1 2-1-1zm-11-65q0 3-2 1zm16 40v-2q2 1 0 2m55 23v-2zm-183-13h-3zm170-48v2zM85 73l-3 1q2-1 3-1m17-1h-2zm206 15h2l-1 1zM96 72h2zm-56 32 1 1zm59 1h1zm-3 1h2zm148 6 1 2zm48-1v2zm20 16 1 1zm-9-35v1zm-32-41v-1zm-25 90v1zM93 107h-1zm41-9h-1zM89 73v-1zm337 156 2 2 2 8 3 9 1 6 1 3 1 6 3 7 1 1 2 4 1 5-1 1-2-2-1-2-3-7-2-3-3-9v-3l-1-2-2-9-1-5-1-7z" class="uuid-4a0ae490-667f-4d2f-a258-af45e0932f93"/><path d="m441 286-3 1-2-6-2-3-2-4-3-7-1-2-1-6-2-5-1-5-1-4 2-2 1 2 1 3 2 9 3 7 1 4 3 8 3 5 1 3zm-63-43 1 2 6 33-2-3-4-15-2-8-2-5v-3zm12 30-2-3-2-7-2-10-1-3-2-6v-1q-2-3 2-4l1 1 2 9 3 14zm37-2q-3-2-2-5h1q3 2 2 5l3 4 4 10 1 3q2 2 1 3h-2v-3l-3-3-1-3-4-7zm-39-30-1 1 1 2 1 3v2l1 5 2 8 2 6-1 2-1-2-2-6-2-9-1-4v-1l-1-5-2-3 1-2 2 1zm-18-16-2 1-2-3-4-6-1-2 2-1q3 1 4 3v3l3 2zm52 50 1-1q3 0 3 4l3 4-1 2q3 1 2 4l-2 1q-1-1-1-4l1-1-1-1-3-3v-2zm-2-30q3 2 2 5l2 7-1 2q-2-2-4-3l1-1v-4l-2-2q-1-3 2-4m-16 55q-2 3-4 3-2-3 2-4l3-4 2-2h3l-1 1-1 2-2 2zm-11 24q-3-1-3-4l3-1 2-4 2 1-1 3-2 3zm27-112-3-3-2-3-1-2 1-2 2 1 4 7zm-26 41 2 1 2 9v2l-1 1-1-3-2-7zm2 45v-2q1-2 3-2l1-3h3q0 2-1 4h-2zm1 9q-1 4-3 4l-2-2 3-3 1-2h3q0 3-2 3m17-2-4 4-3 2-3 2 1-2zm-1-48-1 1q-2-2-1-5l-1-1-1-3h2l1 1 1 5zm-16-67-3 1-2-4h4l1 1zm-20 50q-1 2-3 3l-1-2q0-4 3-4zm-19-30 1-1h2l2 3-2 1q-3 0-3-3m9 1q-3 1-4-1v-3h2l2 1zm18 69h2l1 4-3 1zm19-82-1-2 4-3q2 1 1 2-1 3-4 3m-30 33 1 2q0 3-2 3l-2-4q2-2 3-1m18-39h-4l-1-3q1-2 2-1 3 1 3 4" class="uuid-4a0ae490-667f-4d2f-a258-af45e0932f93"/><path d="M369 225h2l2 3-2 2q-2-1-2-3zm49 14q3 2 2 4-1 3-4 0v-3zm3 0 2-2q2 2 2 5l-1 1zm-53-35h-2l-2-4h3q2 3 1 4m48-10-2-2-1-2 3-1 2 4zm-28 126-2-4 2-1 2 1q0 3-2 4m13-8-2-1 3-3 2-2zm9-121 3 1-1 3h-3l-1-2zm-21 100q-2-1-3-3l1-2h2l1 3zm-7 1q1-2 3-2l1 3-2 3zm2 22q-3-3 0-4l2 3zm-13-99-2 2-2-2v-1q0-2 2-1zm18 82v2l-1 2q-2 0-3-3 1-2 4-1m5-45q-2 0-2-2v-2l2-1q3 3 0 5m3 38-1-2q0-2 2-3 2 2 1 3zm-28-81-1-3h3l1 1q-1 2-3 2m20 88 1-4 2 1q1 3-2 3zm36-73q3 2 2 5h-2l-1-3zm-9-24h-3l-1-2 1-1q3 1 3 3m-32 100q3 3-1 5l-1-3zm27-92-1-3h3v3zm-15 71q2 1 1 3l-1 2q-3-1-1-5z" class="uuid-4a0ae490-667f-4d2f-a258-af45e0932f93"/><path d="m392 287-2-2 3-3q2 4-1 5m30-68 1-1 2 4q0 2-2 1zm-42 15 1 1v2l-2 2q-3-3 1-5m20 23q3 3 2 6-2-1-2-3zm-5 41 1 2-1 1-2 1v-3zm-20-120 2 3-2 1-2-3zm16 137-2-1v-1q2-4 4-1zm34-50q-2-1-2-3l1-3 2 4zm-34 37 1 2-2 2-1-2zm53-21 1 4h-2q-2-1-1-3zm-27 8-2-1q-1-1 2-3h2q0 3-2 4m-39-67 1-1q3 1 2 4h-2zm38-9h-2l-2-2q2-3 2-1l2 1zm-20 77q1 3-2 3l-1-2 1-2zm-23-66 3-1q2 3-1 4-2-1-2-3m3 5 2-1 1 2q0 3-2 2-2-2-1-3m36-8-2-4h2l2 2zm-14-22 1-2h4q-2 4-5 2m25 17-1 1-3-3 3-1zm25 64q3 2 1 4-2 1-3-3zm-64-51-2 1-2-2 2-2zm26-14q-3-1-1-4 2 1 2 3zm-3-15 2-1 1 3-1 1q-3-1-2-3m-35 22-2-2 2-2 2 2zm30 59h2q0 3-1 4h-2zm-22 23 2 2v2h-2l-1-3zm33-68 1 3-3 1v-2q-1-2 2-2m-11 38v4h-2l-1-2zm22-39q-1 2-2 1-2-1-1-3l1-1zm-45-52 2 3-1 1-3-3zm34 63v-4h1q2 1 1 3zm13 43q-1 2-3 1v-2l1-1q2 0 2 2m-27-96q-2 2-3 1v-2l2-1zm-11 113q2 2-1 4l-2-2q1-2 3-2m11 6-2 3-2-2q1-2 3-2m18-78q-2-1-2-3l2-2 1 3zm23 57v-2l1-1q2 2 2 3zm-64-73 2-1 2 2q-3 2-4-1m15-23h4q0 3-2 2zm-8 39 3-1 1 2q0 2-2 1zm32 34 2-2 1 4q-2 1-3-2m-20-67q2-3 4-1 0 2-3 2zm9 15 1-2q2 1 2 3l-1 1h-1zm3 4q3-1 2 3-3 2-2-3m2-12 1 1q-1 3-3 1l-1-1q2-2 3-1m7 19q-3 1-2-3h1q3 2 1 3m-9 13 2-2 1 2-1 2zm-40-46 2 1 1 2-1 2-2-2zm40 42-2-2 1-1h2v2zm-15 8q0-2 2-1l1 3-2 1zm6-33 2 2q-1 3-3 1l-1-2zm15 58 1 2-2 1q-2 0-2-2zm12 4-2 1q-3-2-1-4 2-1 3 3m-22-64 1 1v2l-2 1-1-2zm-19-19q2 1 2 3-3 1-3-2zm35 27v2l-1 1-2-3 1-1 1 1zm10 79h-2q-2-2 1-3zm-7-65q-2 0-2-3l1-1q3 1 1 4m-14 56q1 3-2 4h-1v-1q0-3 3-3m-14-78v-3h2v3z" class="uuid-4a0ae490-667f-4d2f-a258-af45e0932f93"/><path d="M404 201q3 1 0 4l-1-1q-1-2 1-3m-13 38q-2 1-2-3h2zm-4-42-2-2 2-1 2 2zm2 4 1-2 2 1q1 2-1 3zm22 45q-2 0-2-4h2zm-37-35q2 3-1 3-2-1-1-3zm23-6 1-2q3 1 3 3l-3 1zm12 26h3v2q-2 2-3-2m-19 45q3 2 0 3-3-2 0-3m19-48-2-2q1-2 2-1 2 0 1 2zm-2 31v-4l2 3zm13-36q-2 2-3-1l1-1h1zm-11 78v2h-3q1-2 3-2m-5 14-3 4h-2l4-4zm-33-113h1zm29 69-2 1 1-3zm21 12 1-1 2 1-2 2zm-55-96 3 3q-2 1-4-3m51 71 2-1v4zm1-3-2-1 1-2q3 1 1 3m-14-26v-2l1-1 1 1 1 1zm3 43v3h-2l-1-2zm15 18q1 3-2 4v-3zm-8-1q1 2-2 3-1-3 2-3m-14-38 2 3-2 1zm21 12v4l-1-1-1-1zm-27 9h2v3l-1 1zm-3-60 2-1 1 2q-1 2-3-1m16 67 2-2 1 2-3 2zm-8-63h2l1 1-1 1zm17 63 2 1-2 2zm-20-63 1 2-1 1-2-1zm-27-36h1l2 2h-1zm50 93-1-2 1-1zm-8-11-1 3-1-2zm6-27 1 2-1 2zm-28-7q-2 0-2-2l1-1zm27 19 1 4-1 1zm-2 13q2 1 1 3l-2-1zm-1 17-1-1q-1-2 2-2 1 1-1 3m-22-46 1 1-1 1q-3 0-2-2zm30 46v3q-3-2 0-3m-33-70q2-1 3 1l-1 1zm28 90q-2 0-2-2h2zm-14-58 2-1v2q-1 1-2-1m11 59q1 3-2 2-1-2 2-2m-14-52 1 2h-1zm-24-59-2-1 2-1zm30 80-2 1v-2q1-1 2 1m19 29-1 2-1-1zm-39-76 1 1-1 1zm13 2 1 2-2-1zm-17-26q2-2 3 1-2 1-3-1m21 37v2l-1-1zm-27-27-1-1q2-2 2 1zm10-5q3 0 2 2zm-14-9 1-1q2 1 1 3zm9 0-3-1 2-1zm1 23 2 1zm69 74v-2zm-46-66q-3 0-1-2zm0 21q2 0 2 2-2 0-2-2m-26-34h2l-1 1zm-14-33v2zm55 125h-2zm-20-73q-1-3 2-1zm-3 6 1 1zq0-2 1-1m0 7v2zm49 46v2l-2-2zm-52-58 1 1zm12 7v1h-1zm4-5q0-1 0 0m-286 69v-2l2-3 2-3 1 2v-1l3-5 2-7 3-3 2-7 3-8 3-8 2-5q1-3 3-5l3-7 6-10 1-1 2-5 2-4v-1l1-2h2q-2-3 2-5-2-2 2-4l-1-3 1-1 3 1-1 3v2l-3 6-3 5-3 6-2 4-4 7-5 9-4 6-1 4-4 10q-2 2-2 6l-2 6q-1 4-3 6l-1 1-1 4-2 3-2 3-3 7-1 1v2q-2 2-2-1v-2zm2-1 2-2-1-1zm-27-48 1-1 2 1v-1l-1-2-2 1-2-2 2-4 3-4 3-5 3-6 3-4 2-5h3q1 3-1 4l-1 1-4 8-2 2-3 7-3 5-1 1 4-3v1l2-3v-2l2-2 4-7 3-6 3-4h2v2l-4 8-4 5-1 2-2 6-2 2-2 5v3l-3 4h3l-2 4-2-2q-4-1-7-3l-2-1-1-2q3 0 6 1l5 2v-1l-4-2-3-1-2-2 1-2q4-1 4 2m11 35 2-4h1l1-2 4-9v-1l5-8 7-13 6-9 8-14v-2l2-1 1-4h2v2l-1 2-1 1q-2 6-6 10l-2 4-10 18-2 3-4 8-3 5-1 4-2 4v1q-2 4-3 7l-2 5q0 2-2 3-2 0-2-3l1-1v-1l-3 2-1-2q2-2 3-6l1-1q2 0 1 2" class="uuid-4a0ae490-667f-4d2f-a258-af45e0932f93"/><path d="M118 285q-1 5-3 6l2 1q-1 2-3 3l1 2-1 1h-2l-1-3 4-8 2-4 2-3v-1l2-5 2-5 5-8 3-5 4-8 1-1 4-6 1-2 3-6 5-9 3-6 2-2 1 1q1 1-1 4l-3 5-4 7-4 6-1 3-4 5v2l-4 7-6 11-5 9-3 5zm-3 8" class="uuid-4a0ae490-667f-4d2f-a258-af45e0932f93"/><path d="M123 300q1 2-1 4l-2-2q-1-1 1-3l-1-1-3-2 2-7 3-6 1-2 2-3 5-11 3-4v3l-2 6-1 2 4-4 3-6 1-1v2l-2 6v1l-2 5-5 8-1 4v3l-2-1-2 4-2 4zm5-26-1 2v2l-1 3-1 1-1 5-1 2-1 4 2-3 5-10v-4l1-1zm-8 19" class="uuid-4a0ae490-667f-4d2f-a258-af45e0932f93"/><path d="m133 263 1-3 2-4 4-7 3-4 4-9 4-6 1-1 3-7 2-1 1-3h2v3q-4 5-6 10l-1 3-5 9-3 5-1 1q-1 5-5 9l-1 3-3 3-1-2zm-27 2 2 2 1-1v-1l2-5 4-7 3-4 3-6 3-3 2-5 4-6 1-1q2 0 1 2v1l-4 7-4 6-2 3-6 10-3 5v2l-1 3h-1v2l2-1 2-4 1 2-1 3c-1 1 1 3-2 4l-4-1-1-1-4-1v-3q0 2-2 0l2-2zm6-55q0-2 2-4 3 1 1 5h-2l1 2-2 3-1 2-4 7-4 7-5 7-3 6-2 2-2-1 1-3 5-8 4-7 1-2 3-6 2-4 2-2v-2zm-6 47-1 1h-1l1-4v-1l1-2 1-2 5-9 5-9 2-2 2-5 1-1 3 1-3 5-5 7-1 2-2 4-2 4-3 5-2 4v-1z" class="uuid-4a0ae490-667f-4d2f-a258-af45e0932f93"/><path d="M135 231h1v2l-4 7-4 6-3 5-4 6-2 4-3 3-1-2 4-5 1-2v-1l3-4 3-6 3-3zm-24 24v-2q4-8 9-16l3-5 1-2 3-4 2 1-3 5-8 13-4 6-2 3zm20 49-2-3 2-4 3-7 3-6 1-1v3l-5 15zm-25-39v-1l-2-1 1-1 1-1v-4l1-3v1l2-2h1l-1 3-2 4h1l2-4 1 1-1 2-2 4q1 2-2 2m5 17q-1 2-3-1h-2l-4-3 2-3 2 2 3 1q2 0 2 3zm0-9 2 2-1 3q-3-1-5-3l-3-1 2-3q3 0 3 3zm-9-3-1 2-3-3h-2l-2-1q-2-1-1-2l1-1q3 1 5 3h2zm1-6-2 3-1-2-6-2 1-2h2l5 2zm-28 0 4 1 2 2h2l2 2h-2l-3-2-3-1q-2 1-4-1v-1zm19 7q2 0 2 2l-1 1-1-1-1-1-3-1h-2l-2-2h3l2 1 2 1zm-18-1h3l4 2h2l4 2q1 0 1 2h-2l-8-4h-1q-1 1-3-2m61-101q5 0 3 3-1 1-3-1zq-2 1-3-2v-1q3 0 4 3m17 10 8 3-2 2q-2 1-3-2-3 1-4-2zm-78 80-1 2-4-1h-2v-2l3-1zm104-70q0 3-3 4l-2-2q0-2 2-2zm-8 6 2-2q2 0 3 2l-2 3-3-2zm-53-16 3-3 2 1-1 4zm56 19-2 4-3-2 1-2zm-2-15q3-2 5 1l-3 2q-2 1-2-3m-25 1-2-2h-2l-2-2q3-1 4 1 1 0 3 2zm24 11-2 1-2-2 1-3q2 0 3 2zm-55-12 2-3q2 1 2 3l-1 2zm9 7 3 2-2 3-3-1v-2zm7 116-2 5-2-2 1-3zm-9-116-2 2-3-2 2-2zm37 23q1 3-1 5l-2-1q0-4 2-4zm-46-7-1-1q-2-1 1-3l2 1q0 3-2 3m-27 45q-1-3 1-4h3l-1 4zm31-82q2 0 2 2 2 2-1 2l-2-1q-1-1 1-3m-4 32 2-4 2 1-1 4zm53-1-2-2 1-2 3 1q0 2-2 3" class="uuid-4a0ae490-667f-4d2f-a258-af45e0932f93"/><path d="m174 191-2-1-1-1q1-3 4-1 1 2-1 3m-46-8-3-1 1-3 3 2zm34-9-1 1-2-2 2-3 1 1zm-24 1-1 2-3-1 1-3q2 0 3 2m-23 39h2v3q-1 1-3-2zm10-30q4 1 0 4-2-1-2-3zm36-15 2-2h3l-3 4zm-40 42-2 2-3-2 1-2zm9-39 1-2 3 2-1 2q-2 1-3-2m-1 24 2-3 2 1q1 3-2 4zm0-10 2 2q1 2-2 2l-2-1zm13-18q-3 0-3-2l2-2 2 2q0 2-1 2m12 3 1-2q1-2 3 1v2q-2 1-4-1m-28 4q-2 2-3-1l2-2 2 1zm15 20q1-2 4 1l-1 2q-3 0-3-3m26 10v3h-4l1-3zm-47-8q-2-2 1-3l2 1q1 2-2 3m32 11-1-1 1-3 2 1q0 2-2 3m-23-30-2-1q-1-1 1-3l2 2zm4 2q-2 1-2-2 1-3 3 0 1 2-1 2m35 21-1 2h-2v-3q2-2 3 1m-34-6h1q2 3 1 4-2 0-3-2zm0 1h1zm-5 16q-4 0-2-3h3q1 1-1 3" class="uuid-4a0ae490-667f-4d2f-a258-af45e0932f93"/><path d="m124 200-1-2 1-2h2q0 3-2 4m38 13-1-2 1-1q2-2 3 1l-1 2zm7-45-2 3h-2l1-3zm-46 41 1-2 2 1v3h-2zm7-46 3 2q-2 3-4 0zm25 94-3 7q0-4 3-7m-28-89q1 0 3 2l-1 2-3-2zm-37 85v1h-3v-2l2-2zm68-46 2 1-1 3h-2q-2-1 1-4m7-9-2-2 1-2 3 1zm-33 3 3 1v2h-2l-2-2zm20-29-2 2q-2 0-2-3 1-2 4 1m-23 11 2-1 2 2-1 2zm7 22 2-2 2 1-1 3zm16-36q-3-1 0-3l2 1q0 3-2 2m-14 11 2 3q-2 2-4-1zm20 33-1 2-3-1 2-2zm-14-7q0 3-2 3l-1-1v-2zm-22 0-1 3q-4-1-1-4 1-1 2 1m39-29q-3 3-4 0l1-2q2-1 3 2m1 26q0 3-2 4l-1-1v-2zm-26 19-2-2 2-2q3 3 0 4m-9-22 1-2 3 1-1 2-1 1zm22 0 2-1q2 0 2 2l-1 1zm-22 6-2-1q0-2 2-2 3 1 0 3m-24 78-1-2h3q0 2-2 2m49-71q-2 1-2-2l1-1q3 0 1 3m-31 1 1-3 2 4zm-2 86q-3 1-4-2l1-1 3 1zm10 3 1 1v1h1l-1 2h-2l-1-1q0-3 2-3m43-129q-3-1-1-2l3-1q0 3-2 3m-38 13 1-2q2-1 2 2l-1 1zm-1 2 2 2q-1 2-2 1zm26 7q2 2-1 4l-2-1v-2zm5 6-3-1 1-2q2-2 2 1zm-18 0v2l-3-1v-2zm12 0-1 2h-2l-1-1 2-2zm-67 56 3 1-1 2h-2zm44-45v2h-2l-1-2zm-67 51q1-3 4-1v2q-3 2-4-1m69-72 3 1v1l-1 1-3-1zm24 3h-2v-3h2l1 1zm6-22-1 3-2-1 1-2zm-44 27v4q-2-1-2-3zm46-10v2l-2 1-1-2z" class="uuid-4a0ae490-667f-4d2f-a258-af45e0932f93"/><path d="m139 200 2-1 1 2q-3 3-3-1m0 17h-2v-3l2 1zm13-43q3-1 2 2-1 2-3-1m-64 85-2-1 1-3 3 2zm70-69-1 2-2-1v-2zm-19-13 2-2q2 1 2 3-2 2-4-1m10 19q2 2-1 3l-2-1 1-2zm-6-11-1-1v-1h3q0 2-2 2m13 9-1 3q-3-1-1-4zm-9-24-2-2q1-3 3 0zm-16 35 1-1 2 1v1l-2 1zm9-17v-1q2-1 3 1l-1 2zm23-2 2 1-1 3-2-2zm-33 29-1 2-2-2 1-2zm11-3-1-1q-1-2 1-2l2 1zm9-6q-2-1-1-3h3zm-27 11q0 3-3 0l1-2zm8-1h3v3l-3-1zm29-28q-2 0-3-2l2-1q3 1 1 3m-13 22v-3h3l-1 3zm2-18h2l-1 3-2-1zm-13 15h2l-1 3zm18-24q3 0 2 3l-3-2zm0 6-1 1q-3-1-2-3 2-1 3 2" class="uuid-4a0ae490-667f-4d2f-a258-af45e0932f93"/><path d="M153 179h-3q2-3 3 0m-53 95v2h-2q-1-4 2-2m68-97 1-2 2 1q1 3-2 2zm-20 39q1-3 3-1l-1 2q-2 0-2-1m-15 7q2 1 2 3-2 1-3-2zm16-47-1 1q-2 1-3-1l2-1zm-3 11 2-1 1 2-2 1zm-2-12q-4 0-2-3 3 0 2 3m2 16v1h-3v-2zm-20 29v2l-2-1v-2zm-42 37-1 1h-2zm86-71v3l-2-2zm-24 27-1 2-2-1q0-2 3-1m19-34-2 2-2-2 1-2zm-77 85 1-1zm86-81-2 1-1-2zM70 268q-1 3-3 1 1-3 3-1m5 2h-3v-1q2-1 3 1m55-46-2-1q0-3 2-1zm-44 41-2-2 1-1 2 1zm58-47-1 1h-2q1-3 3-1m22-37q0-2 2-1v2zm1 4-3 1v-2q1-1 3 1m-69 94v2l-2-2zm-4-3v1q-1 1-3-1zm45-54h2v2zm-36 65-1 2-1-2zm34-59v-2h1zm-56 50h1zM21 19l2-1 2-1 4-3h1q1-2 4-1l1 3v9l1 5v9l1 3 1 7v1h-2l-3-2q-2 1-4-1l-1-2v-5l-1-6v-5l-1-2v4l1 6 1 3v5l-1 2q-6-1-4-7l-1 4-3-2-5-7q-3-3-1-7t6-6zm0 9q0 5 2 10zm11 6v6l1 1zm-1-3v-6zm2 17v-2zM21 26v-2zm11 7v-1zm35-20h3l1 8 1 3v3l-1 3 1 7v3l-1 1q2 0 1 2l-1 2-2-1v-3l-1-7v-5l-1-14zm6 1q2-1 3 1v16l1 5v3l-2 1 2 2v2h-3v-4l-1-10v-4l-1-4zm5 1 3 1v9l1 10v4h-3v-2l-1-13-1-7zm13 23-1 2-1-2-2-12v-5l1-3h2l1 4zm-9-21h3l1 2v20h-2v-5l-1-12zm18 25-1-3-1-5v-5l-1-6v-1h3l1 7v7l1 4zm5-1-1-2-1-4V23h2v1l1 6v8q2 2-1 3m26 6h-3q0-3 4-3l1-4v-7h2l1 6 1 6q-3 2-4 0zM92 20l4 1-1 3 1 7v5l-2 2-1-11zm19 20h-2l-1-2V24q4 1 3 4l1 10zm29-6 1 6v5l-2 1q-2-1-2-3l1-8v-2zm-25-8 1 4v8l-1 2-2-1V27l1-1z" class="uuid-4a0ae490-667f-4d2f-a258-af45e0932f93"/><path d="M132 43q-4 1-4-3v-9h2zm-13-4-1-3v-8h2l1 3v6q0 3-2 2m27 5-3 1V35h3zm-23-15h1l1 3v4l-1 3q-3 0-2-3l-1-5zm25 15 1-8 2 1v8zm-26 3-3 1h-4q-1-2 2-2h2zm1-4v-2q2-2 3-1l1 2q-1 3-4 1" class="uuid-4a0ae490-667f-4d2f-a258-af45e0932f93"/><path d="M123 47q0-3 4-2v2q-3 2-4 0m-2-4h-3v-3h3zM58 53q-2 3-4 0l1-3zm-2-1q0 1 0 0 0 1 0 0m48-6q0-4 2-4l1 4zm-22-3-1 1q-3-1-2-3 2-2 3 2m29-2 1 3-2 1q-2-3 1-4m-40 8-2-1v-2l3 1q1 2-1 2m43-7 1-1 2 2-1 1q-2 0-2-2m-12 4q-2 0-2-2h3zm-15 2-1 1q-2-1-2-3 2-2 3 2m7 2h3q0 2-2 2zm-19 2h3l-2 2zm5-3v-3q3-1 2 3zm32-1-1 1-2-1q2-2 3-1zm-17-9q2 2 1 3h-2zm-6 1h2l1 3h-2zm12 9 2 1q-3 3-4 0v-1zm-35 1q-3-2-1-4l2 2zm8-4 3 1v1l-1 1-2-1zm-12 1q-1 4-3 2l1-2zm24-4-1 1-1-1v-2l1-1 1 1zm9 1q3 1 1 3h-2zm-22 8-1 2-2-1v-1zm31-3v1zm-13-4q2 2-1 3l-1-1zm-31 8 1-1 1 1zm7-1-1 2-1-1zm12 0h1l2 1-1 1zm11 98 2-1 10-3 6-2 2-1q6-1 11-3l7-4 6-2 6-2 6-2 4-1 9-2 3-1h1l-2 1-5 1-6 2-5 2-12 4-13 6-10 3-8 2-3 1-3 1-4 1zm-1 0-10 2h-2l6-2zm4-9 1-1 1-1 8-1q-2 2-5 2zm349 79v-1h1zM225 36l-2 1z" class="uuid-4a0ae490-667f-4d2f-a258-af45e0932f93"/></svg>